<?xml version="1.0" encoding="utf-8"?>
<!-- Generator: Adobe Illustrator 25.2.1, SVG Export Plug-In . SVG Version: 6.00 Build 0)  -->
<svg version="1.1" id="Layer_1" xmlns="http://www.w3.org/2000/svg" xmlns:xlink="http://www.w3.org/1999/xlink" x="0px" y="0px"
	 viewBox="0 0 613 557" style="enable-background:new 0 0 613 557;" xml:space="preserve">
<style type="text/css">
	.st0{opacity:0.5;fill:#E4EBF7;enable-background:new    ;}
	.st1{fill-rule:evenodd;clip-rule:evenodd;fill:#597EF7;}
	.st2{fill:#E4EBF7;}
	.st3{fill:#4E5C93;}
	.st4{fill:#FFFFFF;}
	.st5{fill:#FAAD14;}
	.st6{fill:#FF7A46;}
	.st7{fill:#BAE637;}
	.st8{fill-rule:evenodd;clip-rule:evenodd;fill:#7CB305;}
	.st9{fill:#7CB305;}
	.st10{fill-rule:evenodd;clip-rule:evenodd;fill:#5B8C00;}
	.st11{fill-rule:evenodd;clip-rule:evenodd;fill:#253368;}
	.st12{fill-rule:evenodd;clip-rule:evenodd;fill:#FFC999;}
	.st13{fill:#DD936F;}
	.st14{fill:#253368;}
	.st15{fill-rule:evenodd;clip-rule:evenodd;fill:#FFFFFF;}
	.st16{fill-rule:evenodd;clip-rule:evenodd;fill:#4E5C93;}
	.st17{fill-rule:evenodd;clip-rule:evenodd;fill:#E4EBF7;}
	.st18{fill:#A3B5D6;}
	.st19{fill-rule:evenodd;clip-rule:evenodd;fill:#FAAD14;}
	.st20{fill:#FFFFFF;filter:url(#Adobe_OpacityMaskFilter);}
	.st21{mask:url(#mask0_1_);}
	.st22{fill-rule:evenodd;clip-rule:evenodd;fill:#ADC6FF;}
</style>
<path class="st0" d="M594,517H72c-10.5,0-19,8.5-19,19s8.5,19,19,19h522c10.5,0,19-8.5,19-19S604.5,517,594,517z"/>
<path class="st1" d="M326.5,389.3c-13.2,0-23.8-10.7-23.8-23.8s10.7-23.8,23.8-23.8s23.8,10.7,23.8,23.8S339.7,389.3,326.5,389.3z
	 M398,376.3v-21.6l-17-4.3c-1.2-4.5-3-8.8-5.3-12.8l9-15.1l-15.2-15.2l-15.1,9c-4-2.3-8.3-4-12.8-5.3l-4.3-17h-21.6l-4.3,17
	c-4.5,1.2-8.8,3-12.8,5.3l-15.1-9l-15.2,15.2l9,15.1c-2.3,4-4,8.3-5.3,12.8l-17,4.3v21.6l17,4.3c1.2,4.5,3,8.8,5.3,12.8l-9,15.1
	l15.2,15.2l15.1-9c4,2.3,8.3,4,12.8,5.3l4.3,17h21.6l4.3-17c4.5-1.2,8.8-3,12.8-5.3l15.1,9l15.2-15.2l-9-15.1c2.3-4,4-8.3,5.3-12.8
	L398,376.3z"/>
<path class="st1" d="M158.5,219.7c-7.3,0-13.2-5.9-13.2-13.2s5.9-13.2,13.2-13.2s13.2,5.9,13.2,13.2S165.8,219.7,158.5,219.7z
	 M198,212.5v-11.9l-9.4-2.4c-0.7-2.5-1.7-4.9-2.9-7.1l4.9-8.3l-8.4-8.4l-8.3,5c-2.2-1.2-4.6-2.2-7.1-2.9l-2.4-9.4h-11.9l-2.4,9.4
	c-2.5,0.7-4.9,1.7-7.1,2.9l-8.3-5l-8.4,8.4l5,8.3c-1.2,2.2-2.2,4.6-2.9,7.1l-9.4,2.4v11.9l9.4,2.4c0.7,2.5,1.7,4.9,2.9,7.1l-5,8.3
	l8.4,8.4l8.3-5c2.2,1.2,4.6,2.2,7.1,2.9l2.4,9.4h11.9l2.4-9.4c2.5-0.7,4.9-1.7,7.1-2.9l8.3,5l8.4-8.4l-4.9-8.3
	c1.2-2.2,2.2-4.6,2.9-7.1L198,212.5z"/>
<path class="st2" d="M442.3,146.9H167.5c-4.7,0-8.5,3.8-8.5,8.5v197.3c0,4.7,3.8,8.5,8.5,8.5h274.8c4.7,0,8.5-3.8,8.5-8.5V155.4
	C450.8,150.7,447,146.9,442.3,146.9z"/>
<path class="st3" d="M421.2,185H188.6c-1.8,0-3.2,1.5-3.2,3.2v150.1c0,1.8,1.5,3.2,3.2,3.2h232.6c1.8,0,3.2-1.5,3.2-3.2V188.3
	C424.5,186.5,423,185,421.2,185z"/>
<path class="st4" d="M379.2,233.1H217.4v7.6h161.9V233.1z"/>
<path class="st5" d="M298.3,259.6h-80.9v7.6h80.9V259.6z"/>
<path class="st2" d="M298.3,312.5h-80.9v7.6h80.9V312.5z"/>
<path class="st2" d="M265.9,206.6h-48.6v7.6h48.6V206.6z"/>
<path class="st2" d="M339,259.5h-24.3v7.6H339V259.5z"/>
<path class="st4" d="M338.8,286H217.4v7.6h121.4V286z"/>
<path class="st3" d="M166.8,137h276.1c4.3,0,7.8,3.4,7.8,7.7v22.8H159v-22.8C159,140.4,162.5,137,166.8,137z"/>
<path class="st6" d="M175.7,157.7c3.1,0,5.6-2.4,5.6-5.5c0-3-2.5-5.5-5.6-5.5c-3.1,0-5.6,2.4-5.6,5.5
	C170.1,155.2,172.6,157.7,175.7,157.7z"/>
<path class="st5" d="M196.5,157.7c3.1,0,5.6-2.4,5.6-5.5c0-3-2.5-5.5-5.6-5.5c-3.1,0-5.6,2.4-5.6,5.5
	C191,155.2,193.5,157.7,196.5,157.7z"/>
<path class="st7" d="M217.4,157.7c3.1,0,5.6-2.4,5.6-5.5c0-3-2.5-5.5-5.6-5.5c-3.1,0-5.6,2.4-5.6,5.5
	C211.8,155.2,214.3,157.7,217.4,157.7z"/>
<path class="st8" d="M42.4,422.2c0,0-3.3-26.2,32.2-38.1c35.4-11.8,43.3-5.6,43.3-5.6l-3.3,10.5c0,0-5.6,26.2-31.2,29.9
	C57.8,422.5,47.9,417.2,42.4,422.2z"/>
<path class="st9" d="M114,379.8l1,0.8l-0.1,0.1c0,0-0.1,0.1-0.1,0.2l-0.2,0.2c-0.1,0.1-0.2,0.3-0.4,0.4l-0.1,0.1
	c-0.7,0.8-1.6,1.7-2.6,2.6c-2.9,2.7-6.4,5.4-10.6,8c-8.4,5.1-18.3,8.8-29.8,10.5l-0.4,0.1c-7.7,1.1-13.9,3.7-18.7,7.3
	c-2.3,1.7-4.1,3.6-5.5,5.4c-0.5,0.6-0.9,1.2-1.2,1.8l-0.1,0.2c0,0.1-0.1,0.2-0.1,0.2l-0.1,0.2l0,0l-1.2-0.6l0-0.1
	c0.1-0.1,0.2-0.4,0.4-0.7c0.3-0.6,0.8-1.2,1.3-1.9c1.5-1.9,3.4-3.8,5.8-5.6c4.9-3.7,11.1-6.3,19-7.5l0.3-0.1
	c11.5-1.7,21.4-5.3,29.8-10.4c4.1-2.5,7.6-5.2,10.4-7.8c0.9-0.9,1.7-1.7,2.4-2.4l0.1-0.2c0.2-0.2,0.4-0.4,0.5-0.6l0.2-0.2L114,379.8
	z"/>
<path class="st8" d="M113.6,439.9h4.3v-61.4h-4.3l1.2,18.9c0.3,5.4,0.4,10.7,0.1,16.1L113.6,439.9z"/>
<path class="st8" d="M47.9,332.3c0,0,13.1-19.9,44.2-7.3c31.1,12.6,32.7,22.6,32.7,22.6l-8.2,4.1c0,0-19.1,14.7-38.7,2.2
	C58.2,341.5,54.6,332.2,47.9,332.3z"/>
<path class="st8" d="M120.5,456.9h3.3l1.3-108.3c0-1.3-0.9-2.5-2.1-2.9l-2.4-0.7c0,0,0.8,10.1,0.7,22.6c-0.2,12-1.3,26.3-1.3,36.9
	C119.8,434.6,120.5,456.9,120.5,456.9z"/>
<path class="st10" d="M92.2,331.6c14.2,11,28.5,18,28.5,18l-4.2,2.1c0,0-19.1,14.7-38.7,2.2c-19.6-12.5-23.3-21.8-30-21.7
	C47.9,332.3,70.3,314.5,92.2,331.6z"/>
<path class="st8" d="M201.4,379.3c0,0-8.8-13.3-29.8-4.9c-21,8.4-22,15.2-22,15.2l5.5,2.7c0,0,12.9,9.9,26.1,1.5
	C194.4,385.5,196.9,379.2,201.4,379.3z"/>
<path class="st8" d="M152.4,463.5h-2.3l-0.9-73.1c0-0.9,0.6-1.7,1.5-1.9l1.7-0.5c0,0-0.6,6.8-0.5,15.3c0.1,8.1,0.9,17.8,0.9,24.9
	C152.9,448.4,152.4,463.5,152.4,463.5z"/>
<path class="st8" d="M203.9,307.1c0,0-13.1-19.9-44.2-7.3c-31.1,12.6-32.7,22.6-32.7,22.6l8.2,4.1c0,0,19.1,14.7,38.7,2.2
	C193.5,316.3,197.2,306.9,203.9,307.1z"/>
<path class="st8" d="M131.3,435.9H128l-1.3-112.6c0-1.3,0.9-2.5,2.1-2.9l2.4-0.7c0,0-0.8,10.1-0.7,22.6c0.2,12,1.3,26.3,1.3,36.9
	C131.9,409.4,131.3,435.9,131.3,435.9z"/>
<path class="st10" d="M203.9,307.1c0,0-22.4-17.8-44.4-0.7c-14.2,11-28.5,18-28.5,18l4.2,2.1c0,0,19.1,14.7,38.7,2.2
	C193.5,316.3,197.2,306.9,203.9,307.1z"/>
<path class="st8" d="M137.2,435h5.6l2.2-69.7l-4.2-65.8c0-1.3-0.9-2.5-2.1-2.9l-2.4-0.7c0,0,5.2,52.3,5.2,62.9
	C141.5,388.7,137.2,435,137.2,435z"/>
<path class="st8" d="M74.4,259c0,0,11.9-17.6,40.1,0.1c28.4,17.8,26.5,41.3,26.5,41.3l-9.1,0.9c0,0-23.1,7.1-37-11.5
	C80.9,271.3,80.7,261.2,74.4,259z"/>
<path class="st10" d="M74.4,259c0,0,12.8-9.5,23.7,4c5.6,6.9,15.4,12.1,19.7,16.1c11,10.4,18.8,21.7,18.8,21.7l-4.7,0.5
	c0,0-23.1,7.1-37-11.5C80.9,271.3,80.7,261.2,74.4,259z"/>
<path class="st11" d="M168.3,526.8H92.2c-4.3,0-7.9-3.5-7.9-7.9v-76.1c0-4.4,3.5-7.9,7.9-7.9h76.1c4.3,0,7.9,3.5,7.9,7.9V519
	C176.2,523.3,172.6,526.8,168.3,526.8z"/>
<path class="st12" d="M488.9,26.9c2.3-2.9,6.5-3.4,9.5-1.3l58.3,41c5.2,3.9,6.2,11.3,2.1,16.4c-4.1,5.1-11.7,5.9-16.9,1.7
	l-52.3-48.6C486.9,33.6,486.6,29.7,488.9,26.9z"/>
<path class="st12" d="M488.6,16.2c0,0,10.9,6.7,9.4,14c-1.3,6.6-8.2,6.1-8.2,6.1s-6.9,0.6-14.3-1.8c-4.8-1.5-13.8-5.4-13.3-8
	c0.6-3.4,10.5,1.5,11.7-0.7c1.2-2.3-0.7-3.4-4.3-7.5c-2.2-2.5-5.4-4.2-6.9-6.7C459.7,6.7,473.1,4.7,488.6,16.2z"/>
<path class="st13" d="M464.5,9.8c0.1-0.3,0.4-0.4,0.7-0.3c2.3,1,4.3,2.1,6,3.5c1.7,1.3,3.1,2.7,4.2,4.2c0.4,0.5,0.7,1,1,1.4l0.2,0.3
	c0.1,0.1,0.1,0.2,0.1,0.2c0.1,0.3,0,0.6-0.2,0.7c-0.3,0.1-0.6,0-0.7-0.2l-0.1-0.2c0-0.1-0.1-0.2-0.2-0.3c-0.2-0.4-0.5-0.8-0.9-1.3
	c-1-1.4-2.4-2.7-4-4c-1.7-1.3-3.6-2.4-5.8-3.3C464.5,10.4,464.4,10.1,464.5,9.8z"/>
<path class="st13" d="M469.7,9.3c0.1-0.3,0.4-0.4,0.7-0.3l0.2,0.1c0.1,0,0.1,0.1,0.2,0.1l0.1,0.1c0.5,0.2,1,0.5,1.6,0.8
	c1.6,0.9,3.3,2,4.8,3.3c1.2,1,2.2,2.1,3.2,3.3c0.2,0.2,0.1,0.5-0.1,0.7c-0.2,0.2-0.6,0.1-0.7-0.1c-0.9-1.1-1.9-2.2-3-3.1
	c-1.5-1.3-3.1-2.3-4.6-3.2c-0.4-0.2-0.9-0.4-1.2-0.6l-0.3-0.1c-0.3-0.1-0.5-0.2-0.6-0.2C469.7,9.8,469.6,9.5,469.7,9.3z"/>
<path class="st13" d="M476.1,9.6c0.1-0.2,0.5-0.3,0.7-0.2c2.8,1.6,5,3.3,6.6,4.9c0.6,0.6,1.1,1.1,1.4,1.5l0.2,0.2
	c0.1,0.2,0.2,0.3,0.3,0.4c0.2,0.2,0.1,0.5-0.2,0.7c-0.2,0.1-0.6,0.1-0.7-0.2l-0.1-0.1c-0.1-0.1-0.2-0.2-0.3-0.4
	c-0.3-0.4-0.8-0.9-1.3-1.5c-1.6-1.5-3.7-3.1-6.4-4.7C476,10.1,476,9.8,476.1,9.6z"/>
<path class="st11" d="M456.8,122.1c18,9.7,28.7-2.9,28.7-2.9s15.4-0.5,18.4-11.5c10.8-1.4,14-14.5,7-25.7
	c6.2-10.2-5.2-19.5-5.2-19.5c5.2-12.5-3.3-24.1-10.4-30.1c-8.1-32-26.5-27.8-26.5-27.8c-7.5-9.7-23.1,0.7-32.6,13.7
	c0,0-13.4,2.9-9.6,15.5c-7.1,4.6-2.4,11.1-2.4,11.1s-16.3,15.9-7.1,28.7c-11.4,10.9-2.4,16.2-2.4,16.2s-3,10.8,13.7,15.3
	C425.9,114.6,444.4,126.5,456.8,122.1z"/>
<path class="st12" d="M489.4,45.3c-1.8,3.9-5.9,6.2-9,4.8c-3.1-1.4-4.2-5.7-2.3-9.6c1.8-3.9,5.9-5.9,9-4.4
	C490.2,37.5,491.2,41.4,489.4,45.3z"/>
<path class="st12" d="M437.9,45.9c1.8,3.9,5.9,6.2,9,4.8c3.1-1.4,4.2-5.7,2.3-9.6c-1.8-3.9-5.9-5.9-9-4.4
	C437.1,38.1,436.1,42.1,437.9,45.9z"/>
<path class="st12" d="M463,86.5c-6.5,0-11.5-5.3-11.3-11.7l1.7-23.2l20.3-0.2l0.9,23.4C474.8,81.2,469.6,86.5,463,86.5z"/>
<path class="st12" d="M483.7,40.6c-0.9,13.6-7.8,27.1-20.6,26.1c-9.6-0.8-20-12.6-20-26.2c0-19,7.3-27,18.7-27.6
	C474.8,12.1,485.1,21.2,483.7,40.6z"/>
<path class="st13" d="M452.9,62.2c0.2-0.2,0.5-0.2,0.6-0.1c3,2.4,6.2,3.8,9.2,4.1c3.8,0.3,7.1-0.7,10-2.8c0.2-0.2,0.5-0.1,0.6,0.1
	s0.1,0.5-0.1,0.6c-3.1,2.3-6.7,3.3-10.6,3c-3.3-0.3-6.6-1.8-9.8-4.3C452.8,62.6,452.7,62.3,452.9,62.2z"/>
<path class="st11" d="M479.5,75.7c14.4,7.4,22.6-10.7,21.7-18.4c-1.8-14.6-9.7-23.2-9.7-23.2c-8.9-26.4-23.2-28-37.2-24.4
	c-19.6,5-27.5,28.5-17.5,30.9c15.1,3.6,18.6-9,20.8-17.6c1.7-6.3,6.8-5.1,8.8-1.2c0.6,1.2,2.1,2.2,4.3-0.5c2.1-2.5,4.7-0.2,5.2,8.3
	c0.5,8.8,3.6,5.4,5.2,9.5c2.6,6.7-7.1,9-4,21.5C477,60.7,466.2,68.8,479.5,75.7z"/>
<path class="st14" d="M449,30.5c2.2-1,5.4-1.2,9.6-0.4c0.4,0.1,0.6,0.4,0.6,0.8c-0.1,0.4-0.4,0.6-0.8,0.5c-4-0.8-6.9-0.6-8.8,0.3
	c-0.5,0.2-0.9,0.5-1.2,0.8l-0.1,0.1l0,0.1c0,0.1-0.1,0.3-0.2,0.4l-0.1,0.1c-0.3,0.2-0.6,0.3-0.9,0c-0.3-0.2-0.3-0.5-0.2-0.8
	c0.1-0.2,0.2-0.4,0.4-0.6C447.6,31.3,448.2,30.9,449,30.5z"/>
<path class="st14" d="M454.6,35.6c2.2,0,3.8,2.2,3.8,4.8c0,0.4-0.3,0.7-0.7,0.7c-0.4,0-0.7-0.3-0.7-0.7c0-1.9-1.1-3.4-2.4-3.4
	c-1.3,0-2.4,1.5-2.4,3.4c0,0.4-0.3,0.7-0.7,0.7c-0.4,0-0.7-0.3-0.7-0.7C450.8,37.8,452.4,35.6,454.6,35.6z"/>
<path class="st14" d="M472.1,35.6c2.2,0,3.8,2.2,3.8,4.8c0,0.4-0.3,0.7-0.7,0.7c-0.4,0-0.7-0.3-0.7-0.7c0-1.9-1.1-3.4-2.4-3.4
	s-2.4,1.5-2.4,3.4c0,0.4-0.3,0.7-0.7,0.7c-0.4,0-0.7-0.3-0.7-0.7C468.3,37.8,470,35.6,472.1,35.6z"/>
<path class="st11" d="M486.6,36.6c0,0-1.8,9.6-3.6,10.3c0.9-3.8-0.3-14.6-0.7-15.1C481.6,31,486.4,29.9,486.6,36.6z"/>
<path class="st11" d="M440.4,34.9c0,0,2.6,13.2,4.4,13.8c-1.1-3.7-0.7-18.2-0.4-18.8C445,29,440.1,28.2,440.4,34.9z"/>
<path class="st13" d="M467.4,30.8c0.2-0.3,0.6-0.3,0.9-0.1c0.2,0.2,0.3,0.5,0.2,0.8l0,0.1l-2.3,3l0.6,12.1c0,0.3-0.2,0.6-0.5,0.6
	l-0.1,0h-4.3c-0.3,0-0.6-0.3-0.6-0.6c0-0.3,0.2-0.6,0.5-0.6l0.1,0l3.6,0l-0.6-11.6c0-0.1,0-0.2,0.1-0.3l0-0.1L467.4,30.8z"/>
<path class="st15" d="M458,50.6h11.8c0,0-1.2,3.5-5.9,3.5C459.2,54.1,458,50.6,458,50.6z"/>
<path class="st14" d="M468.2,30.2c3.5-1,6.7-0.7,9.5,0.3c0.9,0.3,1.6,0.7,2,0.9c0.3,0.2,0.4,0.6,0.2,1c-0.2,0.3-0.7,0.4-1,0.2
	l-0.1-0.1c-0.1,0-0.2-0.1-0.3-0.2c-0.4-0.2-0.8-0.4-1.3-0.6c-2.5-0.9-5.4-1.2-8.6-0.3c-0.4,0.1-0.8-0.1-0.9-0.5
	C467.6,30.7,467.9,30.3,468.2,30.2z"/>
<path class="st12" d="M444.1,479.9c-5.9,0.1-10.8-4.3-11.1-10L425,347.8c-0.6-8.8,6.5-16.3,15.5-16.5c9-0.2,16.4,7,16.2,15.8
	l-2,122.3C454.6,475.2,449.9,479.8,444.1,479.9z"/>
<path class="st12" d="M437.7,217.3c-10.6,0.2-19,9-18.5,19.4l5.4,111.5c0.4,8.6,7.8,15.3,16.6,15.1c8.8-0.2,15.8-7.2,15.8-15.8
	l0-111.7C457.1,225.4,448.4,217.1,437.7,217.3z"/>
<path class="st1" d="M433.2,485.7l20.5,0.3l1.6-31.8l-23.6-0.3L433.2,485.7z"/>
<path class="st2" d="M431.9,459.6l21.8,0.3c0.4,0,0.7,0.3,0.7,0.7c0,0.3-0.3,0.6-0.6,0.6l-0.1,0l-21.8-0.3c-0.4,0-0.7-0.3-0.7-0.7
	C431.2,459.9,431.5,459.6,431.9,459.6L431.9,459.6z"/>
<path class="st16" d="M431.1,484.4l22.6,0.3l0.6,40.5l-50.9-0.6l0-6.2c0-2.3,1.7-4.2,4-4.7l13.6-3.7l7-3.8c2.1-1.1,3.4-3.3,3.4-5.7
	C431.2,495.5,431.1,486.9,431.1,484.4z"/>
<path class="st17" d="M453.8,526.5l-50.8-0.6c-0.5,0-0.9-0.4-0.9-0.9l0.1-5.6c0-0.5,0.4-0.8,0.9-0.8l50.8,0.6c0.5,0,0.9,0.4,0.9,0.9
	l-0.1,5.6C454.7,526.1,454.3,526.5,453.8,526.5z"/>
<path class="st17" d="M403.2,518.6c0-3.5,2.7-6.5,6.2-7l11.5-1.7l0.6,8.8L403.2,518.6z"/>
<path class="st18" d="M403.2,518.2l50.8,0.6c0.2,0,0.3,0.2,0.3,0.3c0,0.2-0.1,0.3-0.3,0.3l-0.1,0l-50.8-0.6c-0.2,0-0.3-0.2-0.3-0.3
	C402.8,518.4,403,518.3,403.2,518.2L403.2,518.2z"/>
<path class="st2" d="M430.8,499c0.1-0.4,0.5-0.6,0.8-0.5l0.2,0.1c0.2,0.1,0.6,0.2,1,0.3c0.9,0.3,1.7,0.7,2.6,1.2
	c0.9,0.5,1.7,1.2,2.3,1.9c0.4,0.4,0,1.1-0.5,1.1c-0.6,0-1.6,0.1-2.8,0.3c-0.3,0-0.6,0.1-0.8,0.2l-0.8,0.2l-0.9,0.2l0.1,0.1
	c0.5,0.5,1.1,1,1.6,1.5l0.3,0.4c0.2,0.2,0.4,0.4,0.5,0.7c0.4,0.5,0,1.1-0.6,1.1c-0.8-0.1-1.7-0.1-2.7,0c-0.9,0.1-1.8,0.2-2.8,0.3
	l-0.6,0.1l0.2,0.1c0.1,0,0.1,0.1,0.2,0.1l0.2,0.2c0.6,0.5,1.1,1,1.6,1.7c0.2,0.3,0.1,0.7-0.2,0.9c-0.3,0.2-0.7,0.1-1-0.2
	c-0.3-0.5-0.8-1-1.3-1.3c-0.5-0.4-1-0.6-1.6-0.8l-0.2-0.1c-0.2-0.1-0.3-0.1-0.4-0.1c-0.7-0.1-0.8-1.1-0.1-1.3l0.5-0.1l0.1,0
	c0.5-0.1,1.1-0.2,1.7-0.3c1.2-0.2,2.4-0.4,3.5-0.4c0.4,0,0.8,0,1.2,0h0.1l-0.1-0.1c-0.4-0.4-0.8-0.8-1.2-1.1l-0.3-0.2
	c-0.2-0.1-0.3-0.3-0.5-0.4l-0.3-0.2c-0.1,0-0.1-0.1-0.1-0.1c-0.5-0.3-0.4-1.1,0.2-1.2l0.8-0.2c0.6-0.1,1.2-0.3,1.9-0.4
	c0.5-0.1,0.9-0.2,1.3-0.3c0.4-0.1,0.8-0.1,1.2-0.2l0.3,0l-0.1-0.1c-0.2-0.1-0.4-0.3-0.5-0.4l-0.3-0.2c-0.7-0.4-1.5-0.8-2.3-1.1
	c-0.2-0.1-0.4-0.1-0.6-0.2l-0.4-0.1C431,499.7,430.8,499.3,430.8,499z"/>
<path class="st2" d="M431.6,492.5c-0.1,0-0.2,0-0.2,0c-1.3,0.4-1.7,1.4-1.1,2.3c0.2,0.4,0.6,0.7,0.9,1l0.2,0.1l0.4,0.3l0.4,0.3
	c0.2,0.2,0.5,0.4,0.7,0.6c1.2,0.9,2.4,1.9,3.6,2.8c0.7,0.5,1.4,1,2.1,1.5c2.3,1.5,4.2,2.4,5.5,2.6c2,0.3,3-0.8,2.7-3.2
	c-0.6-3.6-3.5-6-7.8-7.3c-1.5-0.5-3.2-0.8-4.8-0.9c-0.4,0-0.9-0.1-1.3-0.1l-0.4,0c-0.2,0-0.4,0-0.6,0L431.6,492.5z M431.6,493.9
	L431.6,493.9l0.4,0c0.5,0,1.2,0.1,2,0.1c1.5,0.2,3.1,0.5,4.5,0.9c3.9,1.2,6.4,3.2,6.9,6.2l0,0.3c0.1,1.2-0.2,1.5-1.1,1.3
	c-1.1-0.2-2.9-1-5-2.4c-0.7-0.4-1.4-0.9-2.1-1.4c-1.2-0.9-2.4-1.8-3.6-2.7l-0.7-0.6l-0.8-0.7l-0.1-0.1c-0.3-0.2-0.6-0.4-0.7-0.7
	l0-0.1C431.4,494,431.4,494,431.6,493.9z"/>
<path class="st12" d="M519.2,478.2c5.8-0.7,10-4.5,9.5-10.2l-10.4-123.2c-0.8-8.8-8.8-15.2-17.8-14.1c-8.9,1.1-15.2,9.2-13.7,17.9
	l21.6,122C509.4,476.2,513.4,478.9,519.2,478.2z"/>
<path class="st12" d="M486.2,217.4c10.5-1.3,20.1,6.2,21.1,16.5l11.3,111.1c0.9,8.6-5.4,16.2-14.1,17.3c-8.7,1.1-16.7-4.9-18-13.4
	l-16.7-110.5C468.3,228.2,475.7,218.7,486.2,217.4z"/>
<path class="st1" d="M531.7,481.7l-21.9,0.5l-5.8-31.7l23.6-0.5L531.7,481.7z"/>
<path class="st2" d="M527.5,455.6c0.4,0,0.7,0.3,0.7,0.6c0,0.3-0.2,0.6-0.6,0.7l-0.1,0l-21.8,0.5c-0.4,0-0.7-0.3-0.7-0.6
	c0-0.3,0.2-0.6,0.6-0.7l0.1,0L527.5,455.6z"/>
<path class="st16" d="M532,480.4l-22.6,0.5l4.1,40.5l50.9-1.1l0-6.2c0-2.3-1.7-4.2-4-4.6l-13.6-3.6l-7-3.7c-2.1-1.1-4-3.4-4.7-5.6
	C533.7,492.4,532.1,482.9,532,480.4z"/>
<path class="st17" d="M514.1,522.7l50.7-1.1c0.5,0,0.9-0.4,0.9-0.9l-0.1-5.6c0-0.5-0.4-0.8-0.9-0.8l-50.7,1.1
	c-0.5,0-0.9,0.4-0.9,0.9l0.1,5.6C513.2,522.3,513.6,522.7,514.1,522.7z"/>
<path class="st17" d="M564.7,514.3c-0.1-3.5-2.8-6.4-6.3-6.9l-11.5-1.6l-0.6,8.8L564.7,514.3z"/>
<path class="st18" d="M564.7,514c0.2,0,0.3,0.1,0.4,0.3c0,0.2-0.1,0.3-0.3,0.3l-0.1,0l-50.7,1.1c-0.2,0-0.3-0.1-0.4-0.3
	c0-0.2,0.1-0.3,0.3-0.3l0.1,0L564.7,514z"/>
<path class="st2" d="M536,494.4c0.4-0.1,0.7,0.1,0.8,0.5c0.1,0.3-0.1,0.7-0.4,0.8l-0.4,0.1c-0.2,0.1-0.5,0.1-0.7,0.2
	c-0.8,0.3-1.6,0.6-2.3,1.1c-0.3,0.2-0.6,0.4-0.8,0.6l-0.1,0.1l0,0c0.4,0,0.8,0.1,1.2,0.2l0.3,0.1c0.4,0.1,0.9,0.2,1.4,0.3
	c0.4,0.1,0.8,0.2,1.2,0.3l1.3,0.3c0,0,0,0,0.1,0c0.6,0.1,0.7,0.8,0.3,1.2l-0.3,0.2c-0.2,0.1-0.4,0.3-0.6,0.5c-0.5,0.4-1,0.8-1.4,1.3
	l-0.1,0.1l0.1,0c0.3,0,0.5,0,0.8,0l0.4,0c1.1,0.1,2.4,0.2,3.6,0.4c0.4,0.1,0.9,0.1,1.2,0.2l0.7,0.1c0.2,0,0.3,0.1,0.4,0.1
	c0.7,0.2,0.7,1.1,0.1,1.3l-0.2,0c-0.1,0-0.3,0.1-0.5,0.2c-0.5,0.2-1,0.5-1.5,0.8c-0.5,0.4-0.9,0.8-1.3,1.4c-0.2,0.3-0.6,0.4-1,0.2
	c-0.3-0.2-0.4-0.6-0.2-0.9c0.4-0.7,1-1.2,1.6-1.7c0.1-0.1,0.3-0.2,0.4-0.3l0.1-0.1l-0.6-0.1c-0.8-0.1-1.6-0.2-2.3-0.3l-0.6,0
	c-1-0.1-1.9,0-2.7,0.1c-0.6,0.1-1-0.6-0.7-1.1c0.2-0.2,0.4-0.5,0.5-0.7c0.6-0.7,1.2-1.3,1.9-1.9l0.1-0.1l-0.5-0.1l-0.6-0.1
	c-0.5-0.1-0.9-0.2-1.3-0.3l-0.5-0.1c-1-0.2-1.7-0.2-2.3-0.2c-0.6,0-0.9-0.7-0.6-1.1c0.6-0.7,1.4-1.4,2.3-2c0.8-0.5,1.7-0.9,2.5-1.2
	l0.4-0.1C535.5,494.6,535.8,494.5,536,494.4z"/>
<path class="st2" d="M536,488.5l-0.4,0c-0.5,0-1.2,0.1-2.1,0.2c-1.6,0.2-3.3,0.5-4.8,1c-4.4,1.3-7.4,3.7-7.9,7.4
	c-0.3,2.3,0.7,3.5,2.7,3.2c1.4-0.2,3.2-1.2,5.5-2.7c0.7-0.4,1.4-0.9,2.1-1.5c1.2-0.9,2.5-1.9,3.6-2.8l0.7-0.6l0.8-0.7
	c0.1-0.1,0.3-0.2,0.6-0.5c0.4-0.4,0.6-0.8,0.7-1.2c0.1-0.8-0.4-1.4-1.4-1.7C536.2,488.5,536.1,488.5,536,488.5z M535.9,489.8
	c0.1,0.1,0.2,0.1,0.3,0.2l0,0c0,0.1-0.1,0.3-0.3,0.5c-0.2,0.2-0.3,0.3-0.4,0.4l-0.9,0.7c-0.2,0.2-0.4,0.4-0.7,0.6
	c-1.2,0.9-2.4,1.9-3.6,2.8c-0.7,0.5-1.4,1-2.1,1.4c-2.1,1.4-3.8,2.3-5,2.5c-1,0.2-1.3-0.2-1.1-1.6c0.4-3,3-5.1,6.9-6.3
	c1.5-0.4,3-0.7,4.5-0.9l0.6-0.1c0.5-0.1,1-0.1,1.4-0.1L535.9,489.8z"/>
<path class="st16" d="M489,178c6.2,0.2,13.7,18.1,23.2,33.6c12.4,20.2,27,40.5,33,55.4c-1.4,5.3-13.8,18.3-13.8,18.3s2.4,4.7,3,7.2
	c-13.8,17.8-33,20-33,20l0,3.6c-31.4,14.1-73.4,0.6-73.4,0.6s-0.8-0.8-0.2-3.6c-14.2-0.2-44.7-17.8-44.7-17.8l4.3-8.7L374.8,274
	c0,0,38.8-54.3,45.7-73c6.4-17.3,16.3-24.2,16.3-24.2S467.8,177.5,489,178z"/>
<path class="st14" d="M434.9,191.2c0.1-0.3,0.4-0.4,0.7-0.2c0.2,0.1,0.3,0.4,0.3,0.6l0,0.1l-51.6,103l0.5,0.3l0.4,0.3
	c1,0.7,2.2,1.5,3.6,2.3c3.9,2.4,8.5,4.9,13.6,7.1c7.9,3.5,16.4,6.3,25.3,8.1c0.3,0.1,0.5,0.3,0.4,0.6c-0.1,0.3-0.3,0.5-0.6,0.4
	c-9-1.8-17.6-4.7-25.6-8.2c-5.1-2.3-9.7-4.7-13.7-7.2c-1.2-0.8-2.3-1.5-3.3-2.1l-0.4-0.2c-0.3-0.2-0.5-0.4-0.8-0.5l-0.5-0.4
	c-0.2-0.1-0.2-0.4-0.2-0.5l0-0.1L434.9,191.2z"/>
<path class="st14" d="M504.6,220.8c0.2-0.1,0.5,0,0.6,0.2l0,0.1l29.1,71.8c0.1,0.2,0,0.4-0.1,0.5l-0.2,0.2l-0.2,0.3
	c0,0.1-0.1,0.1-0.1,0.2l-0.1,0.2c-0.6,0.7-1.3,1.5-2.1,2.3c-2.3,2.4-4.9,4.7-8,7c-6.5,4.7-13.8,8.1-21.9,9.4c-0.3,0-0.6-0.1-0.6-0.4
	c-0.1-0.3,0.1-0.5,0.4-0.6c7.9-1.3,15.1-4.6,21.5-9.3c3-2.2,5.6-4.5,7.8-6.8c0.8-0.8,1.4-1.6,2-2.2l0.3-0.3l0.2-0.3l-29-71.5
	C504.2,221.2,504.3,221,504.6,220.8L504.6,220.8z"/>
<path class="st14" d="M475.4,180c0.3-0.1,0.6,0.1,0.6,0.4l1.3,6.3c1,5.1,2.2,10.7,3.4,16.9l1.5,7.6c2.8,13.9,5.5,27.9,8.1,41.5
	l1.5,7.6c0.4,1.9,0.7,3.9,1.1,5.8l1.4,7.7c3.1,16.5,5.6,30.9,7.6,42.8c0,0.2-0.1,0.5-0.4,0.6c-1.5,0.5-3.1,1-4.7,1.4
	c-19,5.3-39.2,5-58.4,1.3l-1.4-0.3c-2.3-0.5-4.3-0.9-6.2-1.4l-0.6-0.1c-0.6-0.2-1.1-0.3-1.6-0.4l-1-0.3c-0.2,0-0.3-0.1-0.4-0.1
	c-0.2-0.1-0.4-0.3-0.4-0.5l0-0.1l23.6-115.9c0.1-0.3,0.3-0.5,0.6-0.4c0.3,0.1,0.4,0.3,0.4,0.5l0,0.1l-23.6,115.4l0.9,0.2
	c0.5,0.1,1,0.3,1.6,0.4c2.4,0.6,5.1,1.2,8.1,1.8c19,3.6,39.1,3.9,57.9-1.3c1.2-0.3,2.3-0.7,3.5-1l0.7-0.2l-0.6-3.6
	c-1.8-11-4.2-24-6.9-38.6l-1.5-7.8l-0.7-3.8c-0.4-1.9-0.7-3.9-1.1-5.9c-3-16-6.3-32.6-9.5-49l-2.4-12.1l-3-14.9
	C475,180.3,475.1,180.1,475.4,180z"/>
<path class="st14" d="M465.4,180.8c0.3,0,0.5,0.2,0.5,0.4l0,0.1l-2.5,99.2c0,0.3-0.2,0.5-0.5,0.5c-0.3,0-0.5-0.2-0.5-0.4l0-0.1
	l2.5-99.2C464.8,181,465.1,180.8,465.4,180.8z"/>
<path class="st14" d="M448.1,179.9c0.1-0.3,0.4-0.4,0.7-0.3c0.3,0.1,0.4,0.3,0.4,0.6l0,0.1l-20.9,65.7c-0.1,0.3-0.4,0.4-0.7,0.3
	c-0.3-0.1-0.4-0.3-0.4-0.6l0-0.1L448.1,179.9z"/>
<path class="st16" d="M434.6,178l0.9-6.6c0,0,26.8,0.2,53.1-1.1c0.7,2.9,1.4,8.3,1.4,8.3C487.8,176.7,463.9,181.9,434.6,178z"/>
<path class="st14" d="M487.2,178c0.3,0,0.5,0.2,0.6,0.5c0,0.3-0.2,0.5-0.5,0.5l-2.7,0.1c-11.3,0.5-22.3,0.7-32.1,0.7l-2.9,0
	c-3,0-5.7-0.1-7.9-0.1l-1.7-0.1c-0.7,0-1.4-0.1-1.8-0.1l-0.5,0c-0.1,0-0.1,0-0.2,0c-0.1,0-0.2,0-0.2,0l0,0c0,0-0.1-0.1-0.3-0.3
	l0.1-0.4c0.1-0.3,0.1-0.3,0.2-0.3c0.1,0,0.2,0,0.3,0l0.1,0l0.3,0l0.6,0c0.3,0,0.7,0,1.2,0.1l1.2,0c2.7,0.1,6.3,0.1,10.4,0.2l2.3,0
	C463.9,178.8,475.4,178.5,487.2,178z"/>
<path class="st12" d="M409.4,174.9c-6.5-1.6-10.4-8-8.8-14.3L416.2,99c1.6-6.3,8.1-10.2,14.6-8.6c6.5,1.6,10.4,8,8.8,14.3L424,166.3
	C422.4,172.6,415.9,176.5,409.4,174.9z"/>
<path class="st1" d="M433,130.8l6.6-26.1c1.6-6.3-2.4-12.7-8.8-14.3c-6.4-1.6-13,2.3-14.6,8.6l-6.5,25.9L433,130.8z"/>
<path class="st3" d="M431.2,90.1c6.6,1.6,10.7,8.1,9.2,14.5l-0.1,0.3l-6.6,26.1c0,0.2-0.2,0.3-0.4,0.3l-0.1,0l-23.4-5.9
	c-0.2-0.1-0.4-0.3-0.3-0.5c0.1-0.2,0.2-0.3,0.4-0.3l0.1,0l23,5.8l6.5-25.7c1.5-6-2.2-12.1-8.2-13.7l-0.3-0.1
	c-0.2-0.1-0.4-0.3-0.3-0.5C430.8,90.2,431,90,431.2,90.1L431.2,90.1z"/>
<path class="st12" d="M558.5,70.5l0.4,0.9c3.1,6,0.7,13.4-5.5,16.5l-57.1,28.3c-6.2,3.1-13.7,0.6-16.9-5.4l-0.4-0.9
	c-3.1-6-0.7-13.4,5.5-16.5l57.1-28.3C547.8,62,555.4,64.4,558.5,70.5z"/>
<path class="st1" d="M508.7,81.4l-24.6,12.2c-5.9,2.9-8.1,10.5-4.9,16.7c3.2,6.3,10.7,9,16.7,6l24.3-12.1L508.7,81.4z"/>
<path class="st3" d="M508.3,80.7c0.2-0.1,0.4,0,0.5,0.1l0,0.1l11.6,22.9c0.1,0.2,0,0.5-0.2,0.6c-0.2,0.1-0.4,0-0.5-0.1l0-0.1
	l-11.4-22.5l-24.2,12c-5.6,2.8-7.8,9.9-4.8,15.9l0.1,0.3c0.1,0.2,0,0.5-0.2,0.6c-0.2,0.1-0.5,0-0.6-0.2c-3.3-6.4-1.1-14,4.8-17.2
	l0.2-0.1L508.3,80.7z"/>
<path class="st1" d="M493.9,88.5c-5.9-3.3-12.9-0.1-16.3-3.1c-2-1.8-2.7-10.2-2.7-10.2h-25.2c0,0-0.7,8.4-2.7,10.2
	c-3.4,3-12.4,1.2-21.9,6.2c-8.9,4.7-3.6,17.7,0.5,28.4c0.9,2.5-0.7,7.1,0.9,10.6c1.6,3.5,4,7.7,4.9,9.9c3.1,7.4,2.5,15.3,4.5,22
	c0,0-3.2,6.1,1.9,8.6h48.9c6.1-2.7,1.9-8.6,1.9-8.6c1.9-6.4,0.8-11.5,3.6-20.9c0.6-1.9,2.7-4.8,4.6-8.8c2.9-6.2,2.3-12.1,1.9-13.6
	C495,104.9,502.4,93.1,493.9,88.5z"/>
<path class="st3" d="M453.9,86.1l16.7,0.1c0.2,0,0.4,0.2,0.4,0.4c0,0.2-0.2,0.4-0.3,0.4l-0.1,0l-16.7-0.1c-0.2,0-0.4-0.2-0.4-0.4
	C453.5,86.3,453.6,86.2,453.9,86.1L453.9,86.1z"/>
<path class="st3" d="M429.5,105.3c0.1-0.2,0.3-0.3,0.6-0.2c0.2,0.1,0.3,0.3,0.2,0.5l-0.1,0.3l-0.2,0.5c-0.1,0.2-0.2,0.4-0.3,0.7
	c-0.5,1.1-0.9,2.4-1.4,3.8c-1.6,5.1-2.3,10.5-1.8,15.7c0.4,4.1,1.7,7.4,4.9,12.6l0.5,0.8l0.1,0.1l0.6,3.6c0.3,1.5,0.6,3.1,0.8,4.5
	l1,5.1c0.9,4.6,1.5,7.7,1.9,9c0,0.1,0,0.2,0,0.3c-1.9,3.3-0.5,7.5,1.4,8l0.1,0h49l0.1-0.1c0,0,0,0,0.1,0l0.1-0.1
	c0.3-0.2,0.6-0.4,0.8-0.7c1.4-1.6,1.7-3.9,0.3-7.1c0-0.1,0-0.2,0-0.2l0.4-1.9c1-5.2,1.9-9.9,2.6-14.1l0.4-2.5
	c0.1-0.5,0.1-0.9,0.2-1.3l0.3-1.9l0.1-0.2c4.1-5.8,5.9-10.4,6.2-15.6c0.3-4.7-0.6-9.3-2.2-13.7c-0.5-1.4-1-2.6-1.6-3.6l-0.2-0.4
	c-0.1-0.1-0.1-0.3-0.2-0.4l-0.2-0.4c0,0,0-0.1-0.1-0.1c-0.1-0.2-0.1-0.4,0.1-0.6c0.2-0.1,0.5,0,0.6,0.1l0.2,0.3l0.1,0.1
	c0.2,0.3,0.3,0.6,0.5,1c0.5,1.1,1.1,2.3,1.6,3.7c1.7,4.5,2.6,9.2,2.3,14.1c-0.3,5.2-2.1,9.8-6,15.5l-0.3,0.4l-0.2,1.4l-0.2,1.3
	c-0.1,0.9-0.3,1.9-0.5,3l-0.3,1.5c-0.7,4.1-1.5,8.6-2.5,13.5l-0.2,0.8l0.1,0.2c1.4,3.3,1,5.7-0.4,7.5l-0.1,0.2
	c-0.5,0.5-1,0.9-1.3,1.1l-0.1,0.1l-0.2,0l-49.1,0c-2.6-0.4-4.3-5.2-2.3-9l0-0.1l-0.2-0.7c-0.4-1.5-0.9-4.2-1.6-7.8l-0.4-2.2
	c-0.3-1.8-0.7-3.7-1-5.6l-1.1-5.8l-0.2-0.4c-3.4-5.4-4.8-8.9-5.3-13l0-0.3c-0.5-5.3,0.3-10.7,1.9-16c0.4-1.4,0.9-2.7,1.4-3.9
	l0.2-0.5c0.1-0.1,0.1-0.3,0.2-0.4l0.2-0.5C429.5,105.3,429.5,105.3,429.5,105.3z"/>
<path class="st3" d="M491.4,128.1c0.2,0,0.4,0.2,0.4,0.4c0,0.2-0.1,0.4-0.3,0.4l-0.1,0h-60.4c-0.2,0-0.4-0.2-0.4-0.4
	c0-0.2,0.1-0.4,0.3-0.4l0.1,0H491.4z"/>
<path class="st2" d="M446.4,85c0.2-0.1,0.5-0.1,0.7,0.1l0.1,0.1l14.9,21.1l15.6-20.7c0.2-0.2,0.4-0.3,0.7-0.2l0.1,0
	c0.2,0.2,0.3,0.4,0.2,0.7l0,0.1l-16,21.3c-0.2,0.3-0.6,0.3-0.8,0.1l-0.1-0.1l-15.3-21.7C446.1,85.5,446.2,85.2,446.4,85z"/>
<path class="st17" d="M470.6,114.8c0,4.7-3.9,8.6-8.8,8.6c-4.9,0-8.8-3.8-8.8-8.6c0-4.7,3.9-8.6,8.8-8.6
	C466.7,106.2,470.6,110.1,470.6,114.8z"/>
<path class="st19" d="M468.2,114.8c0,3.4-2.8,6.2-6.3,6.2c-3.5,0-6.3-2.8-6.3-6.2c0-3.4,2.8-6.2,6.3-6.2
	C465.4,108.6,468.2,111.4,468.2,114.8z"/>
<path class="st1" d="M454.7,274.7l-74.5-16.8c-2.5-0.6-4.1-3-3.5-5.4l12.2-51.7c0.6-2.4,3.1-4,5.6-3.4l74.5,16.8
	c2.5,0.6,4,3,3.5,5.4l-12.2,51.7C459.7,273.7,457.2,275.2,454.7,274.7z"/>
<path class="st11" d="M453.9,277.2l-74.5-16.8c-2.5-0.6-4-3-3.5-5.4l12.2-51.7c0.6-2.4,3.1-4,5.6-3.4l74.5,16.8c2.5,0.6,4,3,3.5,5.4
	l-12.2,51.7C458.9,276.2,456.4,277.8,453.9,277.2z"/>
<path class="st12" d="M413.2,240.3c-3.7,0.1-6.9-2.6-7.2-6.3l-5.7-70c-0.3-6.4,4.8-11.9,11.4-12.1c6.7-0.2,12.2,5,12.2,11.5
	l-4.1,70.4C419.7,237.4,416.8,240.1,413.2,240.3z"/>
<path class="st12" d="M403.8,247.8c0,0-1.4-17.4,4.4-22.2c5.3-4.3,11.8,3.2,11.8,3.2s2.5,4,5.4,10.3c2.1,4.5,5.4,14.5,2.2,13.7
	c-3.4-0.8-3.8-7.7-6.2-6.7c-2.4,1-1.1,5.2-1,10.6c0.1,3.3,1.5,3.2,1,6C420.5,268.3,407.4,267.1,403.8,247.8z"/>
<path class="st13" d="M416,250.4c0.3,0.1,0.5,0.3,0.4,0.6l0,0.1c0,0.1,0,0.2,0,0.3l0,0.1c-0.4,3.3,0.3,7.6,3,12.6
	c0.1,0.2,0,0.6-0.2,0.7s-0.6,0-0.7-0.2c-2.8-5.2-3.5-9.8-3.1-13.2l0-0.3c0-0.2,0-0.3,0.1-0.3C415.4,250.6,415.6,250.4,416,250.4
	L416,250.4z"/>
<path class="st13" d="M411.4,250.2c0.3,0,0.5,0.3,0.5,0.5c-0.2,3.2,0.4,6.7,1.7,10.2c0.4,1.1,0.8,2,1.2,2.9c0.1,0.2,0.2,0.4,0.3,0.6
	l0.2,0.5c0.1,0.2,0,0.6-0.2,0.7c-0.3,0.1-0.6,0-0.7-0.2l-0.2-0.3c-0.1-0.2-0.3-0.5-0.4-0.8c-0.4-0.9-0.8-1.9-1.2-3
	c-1.3-3.6-2-7.2-1.7-10.6C410.9,250.4,411.2,250.1,411.4,250.2z"/>
<path class="st13" d="M407.2,249.2c0.3,0,0.5,0.2,0.5,0.5l0,0.3c0,0.1,0,0.2,0,0.4c0,0.6,0.1,1.2,0.2,1.9c0.2,2,0.7,4,1.4,5.9
	c0.4,1,0.8,1.9,1.3,2.8c0.1,0.2,0.1,0.6-0.2,0.7c-0.2,0.1-0.6,0.1-0.7-0.2c-0.5-0.9-1-1.9-1.4-2.9c-0.7-1.9-1.2-4-1.4-6.1
	c-0.1-0.7-0.1-1.4-0.2-2l0-0.5c0-0.1,0-0.2,0-0.2C406.7,249.4,406.9,249.2,407.2,249.2z"/>
<defs>
	<filter id="Adobe_OpacityMaskFilter" filterUnits="userSpaceOnUse" x="243" y="26" width="128.7" height="158.8">
		<feColorMatrix  type="matrix" values="1 0 0 0 0  0 1 0 0 0  0 0 1 0 0  0 0 0 1 0"/>
	</filter>
</defs>
<mask maskUnits="userSpaceOnUse" x="243" y="26" width="128.7" height="158.8" id="mask0_1_">
	<path class="st20" d="M243,26h128.7v158.8H243V26z"/>
</mask>
<g class="st21">
	<path class="st22" d="M342.7,26h-70.8c-2.3,0-4.2,1.7-4.5,4c-2.1,14.9-15.7,22.5-21.6,25.1c-1.7,0.7-2.8,2.4-2.8,4.2v60.6
		c0,39.6,64.3,64.9,64.3,64.9s64.3-25.3,64.3-64.9V59.3c0-1.8-1.1-3.5-2.8-4.2c-5.9-2.6-19.5-10.2-21.6-25.1
		c-0.3-2.3-2.2-3.8-4.5-3.8V26z"/>
</g>
<path class="st1" d="M336.8,37.8c0.9,2.7,2,5.3,3.5,7.8c2.1,3.7,4.9,7.1,8.2,10.1c3.7,3.4,7.7,6,11.1,7.9v56
	c0,15.2-14.5,28.6-26.7,37.2c-9.9,7-20,12-25.6,14.6c-5.5-2.5-15.4-7.4-25.2-14.3c-8.3-5.8-14.9-11.9-19.5-17.9
	c-2.5-3.3-4.4-6.6-5.7-9.8c-1.3-3.3-1.9-6.5-1.9-9.7v-56c3.4-1.9,7.4-4.4,11.1-7.9c3.3-3.1,6.1-6.5,8.2-10.1
	c1.5-2.5,2.6-5.1,3.5-7.8H336.8z"/>
<path class="st15" d="M310.4,69.3l-21.1,32.1c-1.1,1.7,0.1,3.9,2.1,3.9h9.5l-11.6,21.9c-0.9,1.8,1.4,3.4,2.7,2l31.7-31.7
	c1.6-1.6,0.5-4.5-1.8-4.5h-14.3l6-22.3C314,68.8,311.5,67.7,310.4,69.3z"/>
</svg>
