<?xml version="1.0" encoding="utf-8"?>
<!-- Generator: Adobe Illustrator 25.2.1, SVG Export Plug-In . SVG Version: 6.00 Build 0)  -->
<svg version="1.1" id="Layer_1" xmlns="http://www.w3.org/2000/svg" xmlns:xlink="http://www.w3.org/1999/xlink" x="0px" y="0px"
	 viewBox="0 0 581 617.5" style="enable-background:new 0 0 581 617.5;" xml:space="preserve">
<style type="text/css">
	.st0{fill:#E4EBF7;}
	.st1{fill:#597EF7;}
	.st2{fill-rule:evenodd;clip-rule:evenodd;fill:#253368;}
	.st3{fill-rule:evenodd;clip-rule:evenodd;fill:#A3B5D6;}
	.st4{fill-rule:evenodd;clip-rule:evenodd;fill:#ADC6FF;}
	.st5{fill-rule:evenodd;clip-rule:evenodd;fill:#C99382;}
	.st6{fill:#9B6160;}
	.st7{fill-rule:evenodd;clip-rule:evenodd;}
	.st8{fill-rule:evenodd;clip-rule:evenodd;fill:#7D4556;}
	.st9{fill-rule:evenodd;clip-rule:evenodd;fill:#597EF7;}
	.st10{fill-rule:evenodd;clip-rule:evenodd;fill:#FFFFFF;}
	.st11{fill:#7D4556;}
	.st12{fill:none;stroke:#7D4556;stroke-width:1.383;}
	.st13{fill:#253368;}
	.st14{fill-rule:evenodd;clip-rule:evenodd;fill:#CCD7EE;}
	.st15{fill-rule:evenodd;clip-rule:evenodd;fill:#4E5C93;}
	.st16{fill:#CCD7EE;}
	.st17{fill-rule:evenodd;clip-rule:evenodd;fill:#5B8C00;}
	.st18{fill-rule:evenodd;clip-rule:evenodd;fill:#7CB305;}
	.st19{fill:#FAAD14;}
	.st20{fill:#D46B08;}
	.st21{fill-rule:evenodd;clip-rule:evenodd;fill:#E4EBF7;}
</style>
<path class="st0" d="M481,591.6H105c-6.6,0-12,5.4-12,12s5.4,12,12,12h376c6.6,0,12-5.4,12-12S487.6,591.6,481,591.6z"/>
<circle class="st1" cx="285.3" cy="350.9" r="215.6"/>
<path class="st2" d="M165.3,493.7c0,5.7-4.6,10.3-10.3,10.3c-5.7,0-10.3-4.6-10.3-10.3c0-5.7,4.6-10.3,10.3-10.3
	C160.7,483.4,165.3,488,165.3,493.7z"/>
<path class="st2" d="M153.1,586.5h4v-89.8h-4V586.5z"/>
<path class="st2" d="M153.1,586.5l-46.5,7.7l-3-2.2l49.5-14.6V586.5z"/>
<path class="st2" d="M157.1,586.5l46.5,7.7l3-2.2l-49.5-14.6V586.5z"/>
<path class="st2" d="M151.9,596.9h6.3v-13h-6.3V596.9z"/>
<path class="st2" d="M110.9,597.1c0,3-2.4,5.4-5.4,5.4c-3,0-5.4-2.4-5.4-5.4c0-3,2.4-5.4,5.4-5.4
	C108.5,591.7,110.9,594.1,110.9,597.1z"/>
<path class="st2" d="M160.5,597.1c0,3-2.4,5.4-5.4,5.4c-3,0-5.4-2.4-5.4-5.4c0-3,2.4-5.4,5.4-5.4C158,591.7,160.5,594.1,160.5,597.1
	z"/>
<path class="st2" d="M210.4,597.1c0,3-2.4,5.4-5.4,5.4c-3,0-5.4-2.4-5.4-5.4c0-3,2.4-5.4,5.4-5.4C208,591.7,210.4,594.1,210.4,597.1
	z"/>
<path class="st3" d="M219.7,491.8H90.4c0-12.7,10.3-23,23-23h83.3C209.4,468.8,219.7,479.1,219.7,491.8z"/>
<path class="st4" d="M196,406.7c0,0-1,16.2-15.7,15c-15.1-1.2-13.4-17.5-13.4-17.5s-0.7-10.1,0.3-23.8c0.8-10.6,2.1-24.6,3.3-31.3
	c1.3-7.3,8-12.1,14.9-11.6c10.5,0.8,14.1,9.3,13.8,16.7c-0.2,7.2-0.6,18.9-1,26.8C197.3,396.2,196,406.7,196,406.7z"/>
<path class="st5" d="M228.9,426.4c1.8,6.6,16.5,4.4,16.5,4.4l7.2,5.9c1.1,0.8,1.6,0,2.3,0.2c1.7,0.4,2.1-1.4,2.1-1.4
	c0.6-0.1,1.5,0.5,2.1-1c0,0,1.2,0.2,1.6-1.2c0.2-0.5-2.2-7.6-3.5-11.8c-0.6-1.8-2.2-3.2-4.1-3.4l-17.7-2.7
	C235.5,415.3,226.5,417.4,228.9,426.4z"/>
<path class="st6" d="M244.4,426.1c-0.2-0.1-0.4,0-0.5,0.2c-0.1,0.2,0,0.4,0.1,0.5l0.1,0l5.2,2.2l5.2,7.2c0.1,0.2,0.3,0.2,0.5,0.1
	l0.1,0c0.2-0.1,0.2-0.3,0.1-0.5l0-0.1l-5.3-7.3c0,0-0.1-0.1-0.1-0.1l-0.1,0L244.4,426.1z"/>
<path class="st6" d="M247.9,423.9c-0.2-0.1-0.4,0-0.5,0.2c-0.1,0.2-0.1,0.4,0.1,0.5l0.1,0l4.8,2.7l4.2,7.4c0.1,0.2,0.3,0.2,0.5,0.2
	l0.1,0c0.2-0.1,0.2-0.3,0.2-0.5l0-0.1l-4.3-7.5c0,0-0.1-0.1-0.1-0.1l-0.1,0L247.9,423.9z"/>
<path class="st6" d="M251.4,421.9c-0.2-0.1-0.4-0.1-0.6,0.1c-0.1,0.2-0.1,0.4,0,0.5l0.1,0l3.2,2.6l3.9,8c0.1,0.2,0.3,0.3,0.5,0.2
	l0.1,0c0.2-0.1,0.3-0.3,0.2-0.5l0-0.1l-3.9-8.1c0,0,0-0.1-0.1-0.1l0,0L251.4,421.9z"/>
<path class="st4" d="M182,395.4c0,0-14.9-3.1-17.9,9.2c-3.1,12.7,11,16.4,11,16.4s10,2.3,22.3,5.3c7.5,1.8,15.9,3.6,22.1,4
	c6.8,0.5,8.3-3,9.8-9.2c1.8-7.3,1.8-10.6-4.5-13.1c-6-2.4-14.4-4.6-20.8-6.5C191.9,397.8,182,395.4,182,395.4z"/>
<path class="st4" d="M232.5,429.4l3.5-14.3l-9.4-3.4l-4,16.4L232.5,429.4z"/>
<path class="st7" d="M242.8,455.5c-29.5-7.7-60.2-15.3-84.7-20.8c0,0-18.5-1-19.5,15.9c-1,16.6,19,21.5,19,21.5l80.2,12.5
	c0,0,13.1,1.9,15.3-12.7C255.2,458.6,242.8,455.5,242.8,455.5z"/>
<path class="st5" d="M237.6,533.8c-5.2-1.1-10.1,3.1-9.9,8.4c0.2,6.2,0.5,14.5,0.6,23.4c0.1,9.2,0.3,16.9,0.9,17.8
	c2.9,4.3,8.7,5.9,14.7,10.1c4.7,3.4,5.5,4.9,11.6,6.1c8.5,1.6,4.6-2-4.9-13.5c-8.4-10.2-7.9-15-7.9-15l1.6-28.8
	C244.5,538.3,241.6,534.6,237.6,533.8z"/>
<path class="st8" d="M249.7,583.5c6.2,6.9,13.2,12.3,13.1,15.5c-0.2,3.3-2.7,6.2-13.3,2.4c-7.3-2.6-5.2-4.1-12.1-8.7
	c-3.5-2.3-4.7-2-7.9-4.6c-1.8-2.4-1-13.8-1-13.8l12.1,13.3c0,0-3.2-6.2-0.6-7.6c2.6-1.3,5-2.3,6.5-1.2
	C248,580.1,249.7,583.5,249.7,583.5z"/>
<path class="st7" d="M255.7,472.1c-4,48.4-8.5,95.8-8.5,95.8l-20.5,0l-3.2-97.5c0,0,1.8-11.2,17.6-13.2
	C255.7,455.2,255.7,472.1,255.7,472.1z"/>
<path class="st7" d="M108.9,456.5c1.8-19.5,2.3-29.6,4.5-33.2c47,1.3,58.7,0.7,58.7,0.7s0.5,6.9,2.6,28.2c0,0-14.5,26.4-33.1,26.4
	C124.8,478.6,108.9,456.5,108.9,456.5z"/>
<path class="st9" d="M113.4,423.3l0.9-8.9l57.5,0.7l0.3,8.9C172.1,424,141.7,425.2,113.4,423.3z"/>
<path class="st8" d="M139.3,306.1c0,0-8-4.9-4.8-13.6c-3.2-7.8,1.3-12.3,1.3-12.3s0.7-10,7.3-10.2c4.7-10,16.1-5.4,16.1-5.4
	s7.7-5.7,18,3.2c7.8,0.7,8-3.2,10.4-0.4c2.4,2.8,3.2,9.2-0.3,11.5c5.6,2.8-0.1,11.7-0.1,11.7s1.6,5.4-5.2,9
	c-6.8,3.7-10,16.1-21.2,19.5C149.9,322.4,138.8,318.4,139.3,306.1z"/>
<path class="st5" d="M142.6,325l3.2-17.1l22.6,4l-0.6,15.1c-0.2,6.7-6,11.9-12.7,11.5c-0.1,0-0.3,0-0.4,0
	C148,338.1,141.7,331.9,142.6,325z"/>
<path class="st5" d="M151.9,281.9c0,0,1.2,6.1-3.5,7.5c0.7,7.9-2.7,7.1-2.7,7.1s-5.3-7.1-9.2-1c-3.7,5.7,2.4,14.4,8.1,13.1
	c9.2,15.4,28.2,16.5,34.7,6.6c3.9-6,2.7-14.8,3.2-19c1.4-10.2-0.5-13.3-0.5-13.3s-3.9,0.8-8.1-2.5c-4.6,3.3-11.1-0.2-11.1-0.2
	S158.4,285.9,151.9,281.9z"/>
<path class="st6" d="M141.3,296.8c-1.3-0.3-2.2,0-2.7,0.8c-0.2,0.3-0.3,0.7-0.3,0.9c0,0.2,0.2,0.4,0.4,0.5c0.2,0,0.4-0.2,0.5-0.4
	c0-0.1,0.1-0.3,0.2-0.5c0.3-0.4,0.8-0.6,1.8-0.4c0.9,0.2,1.7,0.9,2.1,1.9c0.2,0.4,0.3,0.8,0.3,1.1c0,0.2,0,0.4,0,0.4
	c-0.9,0.5-1.6,1.2-1.8,2c-0.3,1,0.2,2,1.4,2.8c0.2,0.1,0.5,0.1,0.6-0.1c0.1-0.2,0.1-0.5-0.1-0.6c-1-0.6-1.3-1.2-1.1-1.8
	c0.2-0.5,0.7-1.1,1.4-1.5C145.4,300.9,143.7,297.3,141.3,296.8z"/>
<path class="st6" d="M142.6,300c-0.4,0-0.8-0.1-1.2,0c-1.1,0.1-1.8,0.6-1.8,1.6c0,0.2,0.2,0.4,0.4,0.4c0.2,0,0.4-0.2,0.4-0.4
	c0-0.4,0.3-0.7,1-0.7c0.3,0,0.7,0,1,0l0.2,0c0,0,0.1,0,0.1,0c0.2,0,0.5-0.1,0.5-0.3c0-0.2-0.1-0.5-0.3-0.5l-0.2,0
	C142.7,300,142.7,300,142.6,300z"/>
<path class="st10" d="M166.9,296.2c-0.4,4.2-4,7.2-8.2,6.9c-4.2-0.4-7.2-4-6.9-8.2c0.4-4.2,4-7.2,8.2-6.9
	C164.2,288.3,167.3,292,166.9,296.2z"/>
<path class="st11" d="M160.1,287.5c4.4,0.4,7.7,4.3,7.4,8.8c-0.4,4.5-4.3,7.8-8.8,7.4c-4.4-0.4-7.7-4.3-7.4-8.8
	c0.4-4.4,4.2-7.6,8.5-7.4L160.1,287.5z M152.4,294.9c-0.3,3.9,2.5,7.3,6.4,7.6c3.9,0.3,7.3-2.5,7.6-6.4c0.3-3.9-2.5-7.3-6.4-7.6
	S152.7,291.1,152.4,294.9z"/>
<path class="st10" d="M185.2,297c-0.4,4.2-4,7.2-8.2,6.9c-4.2-0.4-7.2-4-6.9-8.2c0.4-4.2,4-7.2,8.2-6.9
	C182.5,289.2,185.6,292.9,185.2,297z"/>
<path class="st11" d="M178.4,288.3c4.4,0.4,7.7,4.3,7.4,8.8c-0.4,4.5-4.3,7.8-8.8,7.4c-4.4-0.4-7.7-4.3-7.4-8.8
	c0.4-4.4,4.2-7.6,8.5-7.4L178.4,288.3z M170.7,295.8c-0.3,3.9,2.5,7.3,6.4,7.6c3.9,0.3,7.3-2.5,7.6-6.4c0.3-3.9-2.5-7.3-6.4-7.6
	C174.4,289.1,171,291.9,170.7,295.8z"/>
<path class="st6" d="M168.8,294.9c-0.2,0.1-0.3,0.4-0.2,0.6l0.1,0.2c0.1,0.2,0.2,0.3,0.3,0.6c0.3,0.6,0.6,1.2,0.9,1.8
	c0.3,0.6,0.5,1.1,0.7,1.6c0.6,1.8,0.8,3,0.4,3.5c-0.4,0.5-1,0.8-1.7,0.9c-0.7,0.1-1.5,0.1-2.3-0.1c-0.3-0.1-0.5-0.1-0.6-0.2
	c-0.2-0.1-0.5,0-0.6,0.2c-0.1,0.2,0,0.5,0.2,0.6l0.1,0.1c0.1,0,0.3,0.1,0.6,0.2c0.9,0.2,1.8,0.3,2.6,0.1c0.9-0.2,1.6-0.6,2.2-1.2
	c0.7-0.8,0.5-2.3-0.2-4.4c-0.2-0.5-0.4-1.1-0.7-1.7c-0.3-0.7-0.6-1.3-0.9-1.9l-0.2-0.4l-0.2-0.4C169.2,294.9,169,294.8,168.8,294.9z
	"/>
<path class="st10" d="M160.8,306.6c0,0,6.9,1.4,11.9,1c0,0-1.8,4.9-6.7,3.8C161.6,310.6,160.8,306.6,160.8,306.6z"/>
<path class="st11" d="M160.9,306.2l0.9,0.2c0.7,0.1,1.5,0.3,2.4,0.4c1.8,0.3,3.6,0.4,5.2,0.5c1.2,0.1,2.3,0,3.3,0
	c0.3,0,0.6,0.3,0.5,0.6l-0.1,0.1c-0.1,0.1-0.1,0.3-0.3,0.5c-0.3,0.5-0.6,1-1,1.4c-1.5,1.7-3.4,2.5-5.9,2c-1.8-0.4-3.2-1.3-4.2-2.5
	c-0.5-0.6-0.8-1.2-1.1-1.8c-0.2-0.4-0.2-0.7-0.3-0.9C160.3,306.4,160.6,306.1,160.9,306.2z M161.6,307.3l-0.2,0l0,0
	c0.2,0.6,0.5,1.1,1,1.6c0.9,1.1,2.1,1.8,3.6,2.2c2.2,0.4,3.8-0.2,5.1-1.7l0.2-0.2c0.2-0.3,0.4-0.5,0.5-0.8l0.1-0.2l0,0
	c-0.8,0-1.7,0-2.6,0c-1.7-0.1-3.5-0.3-5.3-0.5C163.2,307.5,162.4,307.4,161.6,307.3z"/>
<path class="st11" d="M173,286.4c-0.2-0.1-0.5-0.1-0.6,0.2c-0.1,0.2-0.1,0.5,0.2,0.6c2.3,1.4,5.3,1.9,8.4,1.3c0.2,0,0.4-0.3,0.4-0.5
	c0-0.2-0.3-0.4-0.5-0.4C177.9,288.1,175.2,287.6,173,286.4z"/>
<path class="st11" d="M169.2,293.3c-0.9-0.1-1.8-0.1-2.6,0l-0.3,0l-0.1,0l0.1,1.1l0.3,0c0,0,0.1,0,0.1,0c0.8-0.1,1.6-0.1,2.4,0
	c0.5,0.1,0.9,0.2,1.2,0.3l0.2,0.1l0.4-1C170.4,293.5,169.9,293.4,169.2,293.3z"/>
<path class="st11" d="M177.9,294.6c-1.3-0.1-2.2,0.5-2.8,1.4c-0.3,0.5-0.5,1-0.5,1.4c0,0.3,0.1,0.6,0.4,0.6c0.3,0,0.6-0.1,0.6-0.4
	l0-0.1c0-0.1,0-0.1,0.1-0.2c0.1-0.2,0.2-0.5,0.3-0.7c0.4-0.7,1-1,1.8-0.9c0.8,0.1,1.2,0.5,1.5,1.1c0.1,0.4,0.2,0.7,0.2,1.1l0,0.2
	c0,0.3,0.2,0.6,0.5,0.6c0.3,0,0.5-0.2,0.6-0.4l0-0.1c0,0,0,0,0-0.1c0-0.5,0-1.1-0.2-1.7C179.9,295.4,179.1,294.7,177.9,294.6z"/>
<path class="st11" d="M159.8,293c-1.3-0.1-2.2,0.5-2.8,1.4c-0.3,0.5-0.5,1-0.5,1.4c0,0.3,0.1,0.6,0.4,0.6c0.3,0,0.5-0.1,0.6-0.4
	l0.1-0.2c0,0,0-0.1,0-0.2c0.1-0.2,0.2-0.5,0.3-0.7c0.4-0.7,1-1,1.8-0.9c0.8,0.1,1.2,0.5,1.5,1.1c0.1,0.4,0.2,0.7,0.2,1.1l0,0.2
	c0,0.3,0.2,0.6,0.5,0.6c0.3,0,0.5-0.2,0.6-0.4l0-0.1l0,0c0-0.5,0-1.1-0.2-1.7C161.8,293.8,161,293.1,159.8,293z"/>
<path class="st12" d="M151.9,294.9l-7.4-0.6"/>
<path class="st11" d="M164.9,285.6c-0.1-0.2-0.4-0.3-0.6-0.3c-0.8,0.3-1.8,0.6-2.9,0.7c-1.7,0.2-3.5,0.2-5.2,0.1l-0.3,0l-0.5-0.1
	c-0.2,0-0.5,0.1-0.5,0.4c0,0.2,0.1,0.5,0.4,0.5l0.3,0l0.3,0c0.1,0,0.2,0,0.4,0c1.7,0.1,3.6,0.1,5.4-0.1c1.2-0.2,2.2-0.4,3.2-0.8
	C164.9,286.1,165,285.9,164.9,285.6z"/>
<path class="st6" d="M165.6,316.2c-0.2,0-0.4,0.2-0.5,0.4l0,0.2c0,0.1,0,0.3,0,0.5c-0.1,0.5-0.1,1-0.2,1.5c-0.2,1-0.6,1.7-0.9,1.9
	c-0.2,0.1-0.3,0.4-0.2,0.6c0.1,0.2,0.4,0.3,0.6,0.2c0.6-0.4,1.1-1.2,1.3-2.4c0.1-0.5,0.2-1.1,0.3-1.6l0-0.4l0-0.4
	C166,316.4,165.9,316.2,165.6,316.2z"/>
<path class="st6" d="M167.1,317.7c-0.2,0-0.4,0.2-0.4,0.4l0,0.3c0,0.1,0,0.2,0,0.3c0,0.5-0.1,0.9-0.1,1.3c-0.1,0.4-0.1,0.8-0.2,1.1
	c-0.1,0.2,0,0.5,0.3,0.5c0.2,0.1,0.5,0,0.6-0.3c0.1-0.3,0.2-0.7,0.3-1.2c0.1-0.5,0.1-0.9,0.1-1.4l0-0.4c0-0.1,0-0.2,0-0.3
	C167.6,317.9,167.4,317.7,167.1,317.7z"/>
<path class="st6" d="M163.6,318c-0.2-0.1-0.5,0.1-0.5,0.3l0,0.1c0,0.1-0.1,0.2-0.1,0.3c-0.1,0.3-0.2,0.6-0.3,0.8
	c-0.2,0.5-0.5,0.8-0.7,1l-0.1,0c-0.2,0.1-0.3,0.4-0.2,0.6c0.1,0.2,0.4,0.3,0.6,0.2c0.4-0.2,0.8-0.7,1.1-1.4c0.1-0.3,0.3-0.6,0.4-0.9
	l0.1-0.3c0-0.1,0-0.1,0-0.1C164,318.3,163.8,318.1,163.6,318z"/>
<path class="st6" d="M168.4,317.4c-0.2,0-0.4,0.2-0.4,0.4l0,0.1l0.4,2.6c0,0.2,0.3,0.4,0.5,0.4c0.2,0,0.4-0.2,0.4-0.4l0-0.1
	l-0.4-2.6C168.9,317.5,168.7,317.4,168.4,317.4L168.4,317.4z"/>
<path class="st6" d="M153.6,317.2c-0.2-0.1-0.5-0.1-0.6,0.1c-0.1,0.2-0.1,0.5,0.1,0.6c0.7,0.4,1.4,0.8,2.1,1.2
	c4.3,2.2,8.9,2.8,12.8,2.6l0.4,0c0.3,0,0.6-0.1,0.7-0.1c0.2,0,0.4-0.3,0.4-0.5c0-0.2-0.3-0.4-0.5-0.4l-0.2,0c-0.1,0-0.2,0-0.3,0
	l-0.1,0c-3.8,0.3-8.4-0.3-12.7-2.5C154.9,318,154.2,317.6,153.6,317.2z"/>
<path class="st6" d="M162.5,303.6c-0.1-0.2-0.3-0.4-0.5-0.3l-0.2,0.1c-0.2,0-0.3,0.1-0.5,0.2c-0.5,0.2-1.1,0.4-1.5,0.7
	c-1.7,0.9-2.6,1.9-2.4,3.2c0,0.2,0.3,0.4,0.5,0.3c0.2,0,0.4-0.3,0.3-0.5c-0.1-0.8,0.6-1.6,1.9-2.3c0.5-0.2,0.9-0.5,1.4-0.6l0.2-0.1
	c0.2-0.1,0.3-0.1,0.4-0.1C162.4,304.1,162.5,303.9,162.5,303.6z"/>
<path class="st4" d="M141.4,325.8l-2.4,4.5c0,0-16.8,2-25,7c-7.4,4.5-6.5,51.6-5.3,67.5c-4,18.6,10.9,17.1,10.9,17.1l53.1,4.4
	c0,0,7.8-4.4,3.9-17.5c1-10.7,18.3-61.9,11.6-68.6c-5.2-5.2-17.8-6.2-17.8-6.2l-0.8-5.2C169.6,328.7,161.6,327.8,141.4,325.8z"/>
<path class="st1" d="M185.7,360.5c-0.2,0-0.5,0.2-0.5,0.4c-0.5,4.7-1.3,10.3-2.6,16.6c-0.7,3.6-1.5,7.3-2.4,11.2
	c-1.1,4.6-2.2,9.1-3.3,13.4l-0.7,2.5c-0.2,0.7-0.4,1.4-0.5,2l-0.5,1.7l-0.4,1.4c-0.1,0.2,0.1,0.5,0.3,0.5c0.2,0.1,0.5-0.1,0.5-0.3
	l0.5-1.6l0.4-1.4c0.3-1,0.5-2,0.8-3.1c1.3-4.7,2.5-9.8,3.7-14.8c0.9-3.9,1.7-7.6,2.4-11.2l0.3-1.5c1.1-5.8,1.9-10.9,2.3-15.3
	C186.1,360.8,185.9,360.6,185.7,360.5z"/>
<path class="st1" d="M143.1,332.8c-0.2-0.1-0.5,0.1-0.5,0.3c-0.1,0.2,0.1,0.5,0.3,0.5c8.3,2.2,16.4,2.7,23.3,2.4l0.6,0
	c0.4,0,0.7,0,0.9-0.1l0.6-0.1c0,0,0,0,0,0c0.2,0,0.4-0.2,0.4-0.5c0-0.2-0.2-0.4-0.5-0.4l-0.4,0l-0.6,0.1c-0.2,0-0.3,0-0.5,0
	C159.8,335.6,151.5,335,143.1,332.8z"/>
<path class="st5" d="M195.7,543.2c-5.7-0.9-10.8,3.7-10.4,9.4c0.5,6.6,1,15.6,1.5,25.3c0.5,10,0.9,18.2,1.7,19.2
	c3.3,4.5,9.6,6,16.2,10.4c5.2,3.4,6.2,5.1,12.7,6.1c9.3,1.4,4.8-2.4-5.8-14.4c-9.5-10.7-9-15.9-9-15.9l0.6-31.2
	C203.3,547.8,200.1,544,195.7,543.2z"/>
<path class="st8" d="M210.6,596.4c6.9,7.2,14.7,12.8,14.7,16.3c-0.1,3.5-2.7,6.8-14.3,3.1c-7.9-2.5-5.7-4.3-13.4-8.9
	c-3.8-2.3-5.2-2-8.7-4.7c-2.1-2.5-1.6-14.8-1.6-14.8l13.6,13.9c0,0-3.6-6.6-0.9-8.1c2.8-1.5,5.3-2.6,7-1.5
	C208.6,592.8,210.6,596.4,210.6,596.4z"/>
<path class="st7" d="M212.4,475.3c-2.5,52.4-5.6,103.7-5.6,103.7l-22.1,0.8l-7.1-105.1c0,0,1.3-15.7,18.5-14.9
	C211.6,460.4,212.4,475.3,212.4,475.3z"/>
<path class="st7" d="M203.1,458.1c-23.9-8.9-54.4-15.3-76.5-19.8c0,0-16.6,2.2-17.7,18.5c-1.1,16,16.9,20.1,16.9,20.1l72.4,9.3
	c0,0,11.8,1.4,14-12.7C214.3,460.7,203.1,458.1,203.1,458.1z"/>
<path class="st13" d="M112.8,425.7c-0.2,0-0.4,0.2-0.4,0.4c0,0.2,0.2,0.4,0.4,0.4l0.1,0h58.9c0.2,0,0.4-0.2,0.4-0.4
	c0-0.2-0.2-0.4-0.4-0.4l-0.1,0H112.8z"/>
<path class="st13" d="M113.5,432.5c-0.2,0-0.4,0.2-0.4,0.4c0,0.2,0.2,0.4,0.4,0.4l0.1,0h59.2c0.2,0,0.4-0.2,0.4-0.4
	c0-0.2-0.2-0.4-0.4-0.4l-0.1,0H113.5z"/>
<path class="st13" d="M154.1,425.6c-0.2,0-0.4,0.2-0.4,0.4l0,0.1l0.3,6.8c0,0.2,0.2,0.4,0.5,0.4c0.2,0,0.4-0.2,0.4-0.4l0-0.1
	l-0.3-6.8C154.5,425.8,154.3,425.6,154.1,425.6z"/>
<path class="st14" d="M206.5,457.9l-66.6-14.5l67.7-16.4l54.5,17.5L206.5,457.9z"/>
<path class="st15" d="M209.3,453.4L161,442.9l48-12.1l40.7,12.9L209.3,453.4z"/>
<path class="st2" d="M139.8,446.9l0.1-3.5l68,14.2l-1.4,3.6L139.8,446.9z"/>
<path class="st16" d="M217.8,434.2l-39.2,11.9c-0.2,0-0.2,0.2-0.2,0.4c0,0.1,0.2,0.2,0.3,0.2l0.1,0l39.2-11.9c0.2,0,0.2-0.2,0.2-0.4
	C218.1,434.3,218,434.2,217.8,434.2L217.8,434.2z"/>
<path class="st16" d="M212.8,431.9L169,444.4c-0.2,0-0.2,0.2-0.2,0.4c0,0.1,0.2,0.2,0.3,0.2l0.1,0l43.8-12.5c0.2,0,0.2-0.2,0.2-0.4
	C213.1,431.9,213,431.9,212.8,431.9L212.8,431.9z"/>
<path class="st16" d="M218.2,437.8l-32.9,10.5c-0.2,0-0.2,0.2-0.2,0.4c0,0.1,0.2,0.2,0.3,0.2l0.1,0l32.9-10.5c0.2,0,0.2-0.2,0.2-0.4
	C218.5,437.8,218.4,437.7,218.2,437.8L218.2,437.8z"/>
<path class="st16" d="M227,439.1L194,449.7c-0.2,0-0.2,0.2-0.2,0.4c0,0.1,0.2,0.2,0.3,0.2l0.1,0l32.9-10.5c0.2,0,0.2-0.2,0.2-0.4
	C227.3,439.2,227.1,439.1,227,439.1L227,439.1z"/>
<path class="st16" d="M235,441l-32.9,10.5c-0.2,0-0.2,0.2-0.2,0.4c0,0.1,0.2,0.2,0.3,0.2l0.1,0l32.9-10.5c0.2,0,0.2-0.2,0.2-0.4
	C235.4,441,235.2,441,235,441L235,441z"/>
<path class="st16" d="M169.1,441.2c-0.2,0-0.3,0.1-0.3,0.2c0,0.1,0.1,0.3,0.2,0.3l0.1,0l41.5,7.5c0.2,0,0.3-0.1,0.3-0.2
	c0-0.1-0.1-0.3-0.2-0.3l-0.1,0L169.1,441.2z"/>
<path class="st16" d="M178.5,438.5c-0.2,0-0.3,0.1-0.3,0.2c0,0.1,0.1,0.3,0.2,0.3l0.1,0l41.5,7.5c0.2,0,0.3-0.1,0.3-0.2
	c0-0.1-0.1-0.3-0.2-0.3l-0.1,0L178.5,438.5z"/>
<path class="st16" d="M190.1,436.9c-0.2,0-0.3,0.1-0.3,0.2c0,0.1,0.1,0.3,0.2,0.3l0.1,0l41.5,7.5c0.2,0,0.3-0.1,0.3-0.2
	c0-0.1-0.1-0.3-0.2-0.3l-0.1,0L190.1,436.9z"/>
<path class="st16" d="M198.2,431.6c-0.2,0-0.3,0.1-0.3,0.2c0,0.1,0.1,0.3,0.2,0.3l0.1,0l41.5,7.5c0.2,0,0.3-0.1,0.3-0.2
	c0-0.1-0.1-0.3-0.2-0.3l-0.1,0L198.2,431.6z"/>
<path class="st2" d="M206.6,461.3l3,0.4l52.7-13.4l25.9-86.5l-56.4,8L206.6,461.3z"/>
<path class="st15" d="M209.7,461.8l55.6-14.1c0.5-0.1,0.9-0.5,1.1-1l25-83.1c0.3-1-0.6-2.1-1.6-1.9l-53.5,7.7
	c-0.6,0.1-1.1,0.5-1.2,1.1L209.7,461.8z"/>
<path class="st4" d="M129.2,405.2c0,0-1.8,16.1-16.5,14.2c-15-2-12.5-18.1-12.5-18.1s-0.2-10.2,1.6-23.7c1.4-10.6,3.4-24.4,4.9-31.1
	c1.6-7.2,8.6-11.7,15.5-10.8c10.4,1.4,13.6,10,12.9,17.4c-0.6,7.1-1.6,18.9-2.4,26.8C131.1,394.9,129.2,405.2,129.2,405.2z"/>
<path class="st5" d="M171.6,425.9c1.9,7.2,18,4.8,18,4.8l7.9,6.4c1.2,0.9,1.8,0,2.5,0.2c1.8,0.4,2.3-1.5,2.3-1.5
	c0.7-0.2,1.6,0.6,2.3-1.1c0,0,1.3,0.2,1.7-1.3c0.2-0.6-2.4-8.3-3.9-12.8c-0.7-2-2.4-3.4-4.4-3.7l-19.2-2.9
	C178.7,413.8,169,416.2,171.6,425.9z"/>
<path class="st6" d="M188.5,425.6c-0.2-0.1-0.5,0-0.6,0.2c-0.1,0.2,0,0.4,0.2,0.5l0.1,0l5.7,2.4l5.7,7.8c0.1,0.2,0.4,0.2,0.5,0.1
	l0.1,0c0.2-0.1,0.2-0.4,0.1-0.5l0-0.1l-5.7-7.9c0,0-0.1-0.1-0.1-0.1l-0.1,0L188.5,425.6z"/>
<path class="st6" d="M192.3,423.2c-0.2-0.1-0.5,0-0.6,0.2c-0.1,0.2-0.1,0.4,0.1,0.5l0.1,0l5.2,2.9l4.6,8.1c0.1,0.2,0.3,0.3,0.5,0.2
	l0.1,0c0.2-0.1,0.3-0.3,0.2-0.5l0-0.1l-4.7-8.2c0,0-0.1-0.1-0.1-0.1l-0.1,0L192.3,423.2z"/>
<path class="st6" d="M196.1,421c-0.2-0.1-0.5-0.1-0.6,0.1c-0.1,0.2-0.1,0.4,0,0.6l0.1,0.1l3.5,2.8l4.2,8.7c0.1,0.2,0.3,0.3,0.5,0.2
	l0.1,0c0.2-0.1,0.3-0.3,0.2-0.5l0-0.1l-4.3-8.8c0,0,0-0.1-0.1-0.1l0,0L196.1,421z"/>
<path class="st4" d="M120.6,392.2c0,0-16.2-3.4-19.5,10c-3.4,13.9,12,17.9,12,17.9s10.9,2.5,24.3,5.7c8.2,1.9,17.3,3.9,24.1,4.4
	c7.4,0.5,9-3.2,10.7-10c2-8,1.9-11.5-4.9-14.2c-6.5-2.6-15.6-5-22.6-7.1C131.3,394.8,120.6,392.2,120.6,392.2z"/>
<path class="st4" d="M175.5,429.1l3.8-15.6l-10.2-3.7l-4.3,17.8L175.5,429.1z"/>
<path class="st1" d="M135,361.8c-0.2,0-0.5,0.1-0.5,0.4l-0.1,1.1c-0.3,2.4-0.9,6.5-1.7,12.1l-2.9,19.3c0,0.2,0.1,0.4,0.3,0.5
	c4,1.1,8,2.3,12.1,3.5l2.8,0.8l9.2,2.7l1.5,0.4c4.6,1.4,8,2.5,10.8,3.6c3.3,1.3,4.9,2.8,5.5,5c0,0.1,0.1,0.2,0.2,0.3l0.1,0l5.9,2.1
	l-3.6,14.8l-6.5-0.9c-0.1,0-0.2,0-0.3,0.1l-0.1,0.1c-1.5,1.5-3.6,2.1-6.9,1.9c-5.7-0.4-13.1-1.8-23.4-4.2l-8.6-2l-16.4-3.8
	c-0.2-0.1-0.5,0.1-0.5,0.3c-0.1,0.2,0.1,0.5,0.3,0.5l7.1,1.7c3.5,0.8,7.1,1.7,10.8,2.6l7.6,1.8c10,2.4,17.2,3.7,22.9,4.1
	c3.3,0.2,5.6-0.4,7.2-1.8l0.2-0.2l6.6,0.9c0.2,0,0.4-0.1,0.5-0.3l0-0.1l3.8-15.6c0-0.2,0-0.4-0.2-0.5l-0.1,0l-6.1-2.2l-0.1-0.2
	c-0.7-2.2-2.4-3.7-5.6-5.1l-0.3-0.1l-0.6-0.2c-2.5-1-5.5-2-9.4-3.1l-3.4-1c-1.9-0.6-6.3-1.8-8.5-2.5l-0.8-0.2
	c-4.1-1.3-8.2-2.4-12.2-3.6l-1.3-0.4l2.8-18.5c1-6.9,1.7-11.5,1.9-13.7C135.4,362.1,135.2,361.9,135,361.8z"/>
<path class="st17" d="M347.3,459.2c20.1-9.5,32.1,15.3,22,29.1c-12.3,16.8-18.7,36.2-22.2,42.1c-3,4.9-11.1,16.9-20.9,11.4
	c-9-5.1-4.1-25.1-4.1-25.1S322.5,470.9,347.3,459.2z"/>
<path class="st17" d="M286.9,538c-6.8-9.2-9.3-22.3-1.7-25.7c7.3-3.2,19.4,4.7,25,20.1c5.6,15.3,8.9,26.3,3.4,28.3
	C304.6,563.7,295.9,550.1,286.9,538z"/>
<path class="st18" d="M358.7,538.7c-7.7,9-18.9,27.1-25.9,20.8c-4.2-3.8,1.4-22.1,16.9-32C363,519.1,366.5,529.7,358.7,538.7z"/>
<path class="st18" d="M284.7,476.2c2.9-2,6.6-2.4,10-1.3c4.7,1.5,11.9,6,18.9,18.8c9.2,16.7,14,35.1,13.1,46.7
	c-0.6,7.6-10,10.9-15.3,5.3c-2.4-2.5-5-6.5-7.5-12.4c-10.1-23.9-19.5-39-20.6-40.5C280.4,488.7,278.2,480.5,284.7,476.2z"/>
<path class="st10" d="M291.5,485.7c0.1,1.2-0.8,2.2-2,2.3c-1.2,0.1-2.2-0.8-2.3-2c-0.1-1.2,0.8-2.2,2-2.3
	C290.4,483.7,291.4,484.5,291.5,485.7z"/>
<path class="st10" d="M309.9,494.9c0.1,1.2-0.8,2.2-2,2.3s-2.2-0.8-2.3-2c-0.1-1.2,0.8-2.2,2-2.3
	C308.7,492.8,309.8,493.7,309.9,494.9z"/>
<path class="st10" d="M306.8,519.3c0.1,1.4-0.9,2.5-2.3,2.7c-1.4,0.1-2.6-0.9-2.7-2.2c-0.1-1.4,0.9-2.5,2.3-2.7
	C305.5,517,306.7,518,306.8,519.3z"/>
<path class="st10" d="M363.2,482.8c0,1.9-1.6,3.5-3.5,3.5c-1.9,0-3.5-1.6-3.5-3.5c0-1.9,1.6-3.5,3.5-3.5
	C361.6,479.3,363.2,480.9,363.2,482.8z"/>
<path class="st10" d="M335,493.4c0,1.9-1.6,3.5-3.5,3.5c-1.9,0-3.5-1.6-3.5-3.5c0-1.9,1.6-3.5,3.5-3.5
	C333.4,490,335,491.5,335,493.4z"/>
<path class="st10" d="M344.1,517.1c0,0.8-0.7,1.5-1.5,1.5c-0.8,0-1.5-0.7-1.5-1.5s0.7-1.5,1.5-1.5
	C343.5,515.6,344.1,516.3,344.1,517.1z"/>
<path class="st10" d="M354.6,535.7c0,1.2-1,2.1-2.2,2.1c-1.2,0-2.2-1-2.2-2.1c0-1.2,1-2.1,2.2-2.1
	C353.7,533.5,354.6,534.5,354.6,535.7z"/>
<path class="st13" d="M304.2,540.4c0.2-0.2,0.5-0.2,0.7,0l0.1,0.1l0.1,0.1c0.1,0.1,0.3,0.3,0.4,0.5c0.5,0.6,1,1.2,1.5,2
	c1.6,2.2,3.2,4.8,4.7,7.9c4.2,8.7,6.8,19,6.8,30.9c0,0.3-0.2,0.5-0.5,0.5c-0.3,0-0.5-0.2-0.5-0.5c0-11.7-2.5-21.9-6.7-30.5
	c-1.5-3-3-5.6-4.6-7.7c-0.5-0.7-1-1.3-1.4-1.8l-0.1-0.1c-0.1-0.1-0.2-0.3-0.3-0.4l-0.1-0.1c0-0.1-0.1-0.1-0.1-0.1
	C304,540.9,304,540.6,304.2,540.4z"/>
<path class="st13" d="M342.2,543.9c0.2-0.2,0.5-0.3,0.7-0.1c0.2,0.2,0.3,0.5,0.1,0.7c-1.8,2.4-3.5,5.1-5.1,7.9
	c-3.3,5.9-5.8,12.2-7.7,18.5c-0.7,2.2-1.2,4.3-1.6,6.1l-0.1,0.4c-0.1,0.4-0.2,0.9-0.3,1.2l0,0.2l-0.1,0.5c0,0.3-0.3,0.5-0.6,0.4
	c-0.3,0-0.5-0.3-0.4-0.6l0-0.2c0-0.1,0.1-0.3,0.1-0.5l0.1-0.4c0.1-0.4,0.2-0.8,0.3-1.3l0.1-0.4c0.4-1.8,0.9-3.7,1.5-5.8
	c1.9-6.4,4.5-12.8,7.8-18.7C338.7,549.1,340.4,546.4,342.2,543.9z"/>
<path class="st13" d="M351,481.4c0.2,0.2,0.2,0.5,0,0.7l0,0c0,0,0,0-0.1,0.1l-0.1,0.1l-0.1,0.1c-0.2,0.2-0.5,0.5-0.8,0.9
	c-0.8,1-1.7,2.1-2.7,3.5c-2.8,3.9-5.6,8.6-8.2,14.1c-4.4,9.2-7.8,19.6-9.8,31.4c-2.5,14.3-2.9,29.9-0.9,46.8c0,0.3-0.2,0.5-0.4,0.6
	c-0.3,0-0.5-0.2-0.6-0.4c-2.1-17-1.6-32.7,0.9-47.1c2.1-11.9,5.5-22.4,9.9-31.7c2.6-5.6,5.5-10.3,8.3-14.3l0.2-0.3
	c0.9-1.2,1.7-2.3,2.4-3.1l0.1-0.1c0.3-0.3,0.5-0.6,0.7-0.8l0.1-0.1c0.1-0.1,0.1-0.1,0.2-0.2l0.1-0.1
	C350.5,481.2,350.8,481.2,351,481.4z"/>
<path class="st13" d="M307.4,511.1c0.2-0.1,0.5-0.1,0.7,0.2l0.1,0.1c0,0.1,0.1,0.1,0.1,0.2l0.1,0.1c0.1,0.2,0.3,0.5,0.5,0.8l0.1,0.3
	c0.5,0.9,1.1,2,1.7,3.3l0.1,0.2c2,4.1,3.9,8.8,5.7,14.3c5.1,15.2,8.2,32.4,8.3,51.3c0,0.3-0.2,0.5-0.5,0.5c-0.3,0-0.5-0.2-0.5-0.5
	c-0.1-18.8-3.2-35.9-8.3-51c-1.8-5.3-3.7-9.9-5.6-13.9l-0.1-0.2c-0.7-1.4-1.3-2.5-1.8-3.5l-0.2-0.3c-0.2-0.3-0.3-0.5-0.4-0.8
	l-0.1-0.1l-0.1-0.2C307.1,511.6,307.2,511.3,307.4,511.1z"/>
<path class="st2" d="M346.2,606.7h-43.6c-2.4,0-4.3-1.9-4.3-4.3v-31.6c0-2.3,1.9-4.3,4.3-4.3h43.6c2.4,0,4.3,1.9,4.3,4.3v31.6
	C350.5,604.8,348.6,606.7,346.2,606.7z"/>
<path class="st19" d="M516,95.5H235.7c-5.3,0-9.6,4.7-9.6,10.5v212.5c0,5.8,4.3,10.5,9.6,10.5H516c5.3,0,9.6-4.7,9.6-10.5V106
	C525.6,100.2,521.3,95.5,516,95.5z"/>
<path class="st20" d="M234,103.9c-4.4,0-8,4.2-8,9.5l0.1,27.8L369,239.5c5.6,4.3,13.1,4.3,18.7,0l138.2-98.3l0-27.8
	c0-5.2-3.6-9.5-8-9.5H234z"/>
<path class="st19" d="M234,95.5c-4.4,0-8,4.2-8,9.5l0.1,27.8L369,231.1c5.6,4.3,13.1,4.3,18.7,0l138.2-98.3l0-27.8
	c0-5.2-3.6-9.5-8-9.5H234z"/>
<path class="st2" d="M348.7,40.9c0-15.1,12.2-27.3,27.3-27.3c15.1,0,27.3,12.2,27.3,27.3v13.7h13.6V40.9C416.9,18.3,398.6,0,376,0
	l0,0c-22.6,0-40.9,18.3-40.9,40.9v13.7h13.6V40.9z"/>
<path class="st9" d="M434.9,137.3H317.1c-2.8,0-5.1-2.3-5.1-5.1V57.1c0-2.8,2.3-5.1,5.1-5.1h117.7c2.8,0,5.1,2.3,5.1,5.1v75.1
	C440,135,437.7,137.3,434.9,137.3z"/>
<path class="st21" d="M413.8,124.5h-75.5c-2.7,0-4.9-2.2-4.9-4.9V69.7c0-2.7,2.2-4.9,4.9-4.9h75.5c2.7,0,4.9,2.2,4.9,4.9v49.9
	C418.7,122.3,416.5,124.5,413.8,124.5z"/>
<path class="st2" d="M369.4,101.3c0-3.7,3-6.6,6.6-6.6s6.6,3,6.6,6.6c0,3.7-3,6.6-6.6,6.6S369.4,104.9,369.4,101.3z"/>
<path class="st2" d="M376,81.4c1.8,0,3.3,1.5,3.3,3.3v16.4h-6.6V84.7C372.7,82.9,374.2,81.4,376,81.4z"/>
</svg>
